# xmcd
#
# Track frame offsets:
#	150
#	27702
#	47767
#	70980
#	93899
#	114176
#	144646
#	166896
#	187403
#	207897
#
# Disc length: 3072 seconds
# Revision: 0
# Processed by: cddbd v1.5.2PL0 Copyright (c) Steve Scherf et al.
# Submitted via: dBpowerAMP V12.0
#
DISCID=900bfe0a
DTITLE=Rob Ickes - Road Song
DYEAR=2009
DGENRE=Country
TTITLE0=Song for My Father
TTITLE1=Caravan
TTITLE2=You Win Again
TTITLE3=Road Song
TTITLE4=If I Had You
TTITLE5=I Can't Make You Love Me
TTITLE6=West Coast Blues
TTITLE7=The Nearness of You
TTITLE8=Take the 'A' Train
TTITLE9=Hymn to Freedom
EXTD=
EXTT0=
EXTT1=
EXTT2=
EXTT3=
EXTT4=
EXTT5=
EXTT6=
EXTT7=
EXTT8=
EXTT9=
PLAYORDER=
